<svg xmlns="http://www.w3.org/2000/svg" viewBox="0 0 64 64">
  <defs>
    <linearGradient id="flame" x1="0" y1="1" x2="0" y2="0">
      <stop offset="0%" stop-color="#7a1a00"/>
      <stop offset="55%" stop-color="#ff5a1f"/>
      <stop offset="100%" stop-color="#ffb100"/>
    </linearGradient>
    <radialGradient id="eye" cx="50%" cy="50%" r="50%">
      <stop offset="0%" stop-color="#ffe9b0"/>
      <stop offset="40%" stop-color="#ff5a1f"/>
      <stop offset="100%" stop-color="#7a1a00"/>
    </radialGradient>
  </defs>

  <path fill="url(#flame)" d="M18 20c-2-6 2-12 4-14-1 5 2 7 4 4 1-4-1-8 2-11 1 6 5 8 6 4 2-4 0-8 3-10 0 6 4 9 6 6 2-3 1-7 3-9 1 7-1 12 2 15-3 6-9 9-15 9s-12-1-15-4z"/>

  <path fill="#e6e6ea" stroke="#0c0c0d" stroke-width="1.2" d="M32 12c11 0 18 8 18 18 0 6-2 10-5 13l1 7c.2 1.5-1 2.5-2.3 2.2l-4.2-1c-1 2-3 2.4-4.5 2.4H29c-1.5 0-3.5-.4-4.5-2.4l-4.2 1C19 52.7 17.8 51.7 18 50.2l1-7c-3-3-5-7-5-13 0-10 7-18 18-18z"/>

  <ellipse cx="24.5" cy="30" rx="5.2" ry="6" fill="#0c0c0d"/>
  <ellipse cx="39.5" cy="30" rx="5.2" ry="6" fill="#0c0c0d"/>
  <circle cx="24.5" cy="30" r="2.6" fill="url(#eye)"/>
  <circle cx="39.5" cy="30" r="2.6" fill="url(#eye)"/>

  <path fill="#0c0c0d" d="M32 34l3.2 5.5h-6.4z"/>

  <path fill="none" stroke="#0c0c0d" stroke-width="1.1" d="M23 46h18M27 46v4M31 46v4M35 46v4M39 46v4"/>
</svg>
