<svg xmlns="http://www.w3.org/2000/svg" viewBox="0 0 64 64">
  <defs>
    <radialGradient id="eye" cx="50%" cy="45%" r="60%">
      <stop offset="0%" stop-color="#ffe9b0"/>
      <stop offset="45%" stop-color="#ff5a1f"/>
      <stop offset="100%" stop-color="#7a1a00"/>
    </radialGradient>
  </defs>

  <path fill="#e6e6ea" d="M32 6C19.8 6 10 15.6 10 27.4c0 7.4 3.8 13.9 9.6 17.7l-.9 8.6c-.2 1.7 1.2 3.1 2.9 2.8l5.1-1c1 2 3 3.2 5.3 3.2s4.3-1.2 5.3-3.2l5.1 1c1.7.3 3.1-1.1 2.9-2.8l-.9-8.6C50.2 41.3 54 34.8 54 27.4 54 15.6 44.2 6 32 6z"/>

  <ellipse cx="23" cy="28" rx="6.5" ry="8" fill="#0c0c0d"/>
  <ellipse cx="41" cy="28" rx="6.5" ry="8" fill="#0c0c0d"/>
  <circle cx="23" cy="28" r="3.4" fill="url(#eye)"/>
  <circle cx="41" cy="28" r="3.4" fill="url(#eye)"/>

  <path fill="#0c0c0d" d="M32 33.5l4 7h-8z"/>

  <path fill="none" stroke="#0c0c0d" stroke-width="1.3" d="M21 48h22M26 48v4.5M31 48v4.5M36 48v4.5"/>
</svg>
